<?xml version="1.0" encoding="UTF-8" standalone="no"?>
<!-- Created with Inkscape (http://www.inkscape.org/) -->

<svg
   xmlns:dc="http://purl.org/dc/elements/1.1/"
   xmlns:cc="http://creativecommons.org/ns#"
   xmlns:rdf="http://www.w3.org/1999/02/22-rdf-syntax-ns#"
   xmlns:svg="http://www.w3.org/2000/svg"
   xmlns="http://www.w3.org/2000/svg"
   xmlns:xlink="http://www.w3.org/1999/xlink"
   xmlns:sodipodi="http://sodipodi.sourceforge.net/DTD/sodipodi-0.dtd"
   xmlns:inkscape="http://www.inkscape.org/namespaces/inkscape"
   width="297mm"
   height="210mm"
   viewBox="0 0 297 210"
   version="1.1"
   id="svg8"
   inkscape:version="0.92.2 (5c3e80d, 2017-08-06)"
   sodipodi:docname="emo.svg">
  <defs
     id="defs2">
    <linearGradient
       inkscape:collect="always"
       id="linearGradient991">
      <stop
         style="stop-color:#000000;stop-opacity:1;"
         offset="0"
         id="stop987" />
      <stop
         style="stop-color:#000000;stop-opacity:0;"
         offset="1"
         id="stop989" />
    </linearGradient>
    <linearGradient
       inkscape:collect="always"
       xlink:href="#linearGradient991"
       id="linearGradient993"
       x1="135.6966"
       y1="200.3219"
       x2="199.261"
       y2="201.61087"
       gradientUnits="userSpaceOnUse"
       gradientTransform="matrix(0.94478339,0,0,1,7.492707,0)" />
  </defs>
  <sodipodi:namedview
     id="base"
     pagecolor="#ffffff"
     bordercolor="#666666"
     borderopacity="1.0"
     inkscape:pageopacity="0.0"
     inkscape:pageshadow="2"
     inkscape:zoom="0.56984375"
     inkscape:cx="608.54143"
     inkscape:cy="422.78267"
     inkscape:document-units="mm"
     inkscape:current-layer="layer1"
     showgrid="false"
     inkscape:measure-start="0,0"
     inkscape:measure-end="0,0"
     inkscape:window-width="1366"
     inkscape:window-height="705"
     inkscape:window-x="-8"
     inkscape:window-y="-8"
     inkscape:window-maximized="1"
     showguides="false" />
  <metadata
     id="metadata5">
    <rdf:RDF>
      <cc:Work
         rdf:about="">
        <dc:format>image/svg+xml</dc:format>
        <dc:type
           rdf:resource="http://purl.org/dc/dcmitype/StillImage" />
        <dc:title></dc:title>
      </cc:Work>
    </rdf:RDF>
  </metadata>
  <g
     inkscape:label="Capa 1"
     inkscape:groupmode="layer"
     id="layer1"
     transform="translate(0,-87)">
    <rect
       style="opacity:1;fill:#80ffb3;fill-opacity:1;fill-rule:nonzero;stroke:none;stroke-width:2;stroke-linecap:butt;stroke-linejoin:round;stroke-miterlimit:4;stroke-dasharray:none;stroke-dashoffset:0;stroke-opacity:1;paint-order:markers stroke fill"
       id="rect1274"
       width="298.55042"
       height="210.79608"
       x="0"
       y="87.59684" />
    <path
       style="opacity:1;fill:#784421;fill-opacity:1;fill-rule:nonzero;stroke:none;stroke-width:36.28346634;stroke-linecap:butt;stroke-linejoin:round;stroke-miterlimit:4;stroke-dasharray:none;stroke-dashoffset:0;stroke-opacity:0.98989898;paint-order:markers stroke fill"
       d=""
       id="path1171"
       inkscape:connector-curvature="0"
       transform="matrix(0.26458333,0,0,0.26458333,0,87)" />
    <path
       style="fill:#916f6f;stroke-width:0.99999994"
       d="m 146.08818,265.39894 c -8.07448,-0.55407 -13.97324,-3.10583 -18.28,-7.90779 -0.4085,-0.45548 -0.74445,-0.88064 -0.74654,-0.9448 -0.002,-0.0641 0.59534,0.23432 1.32759,0.66328 6.04326,3.54015 12.79406,5.58818 20.70314,6.28082 2.09729,0.18368 3.56867,0.17768 7.38083,-0.0301 2.61874,-0.14273 5.11735,-0.31245 5.55248,-0.37719 1.46568,-0.21803 -2.55981,0.89936 -4.839,1.34321 -4.11105,0.80057 -8.28045,1.16594 -11.0985,0.97256 z m 1.96936,-5.78902 c -8.70076,-0.78549 -16.13621,-3.72519 -23.43406,-9.26499 -5.16482,-3.92062 -9.15305,-8.19616 -12.75896,-13.67809 -4.63633,-7.04845 -7.26543,-14.29214 -7.47012,-20.58161 l -0.0846,-2.60052 1.3262,-0.0413 c 0.72941,-0.0228 2.90176,-0.0105 4.82746,0.0273 1.92569,0.0378 5.64837,0.0906 8.27262,0.11738 4.84252,0.0495 9.61314,0.10356 17.60928,0.19959 2.43694,0.0293 5.50429,0.0616 6.81631,0.0718 1.31203,0.0102 3.1015,0.0349 3.9766,0.0549 0.87513,0.0197 2.66465,0.0463 3.97673,0.0585 1.31208,0.0121 4.27724,0.0452 6.58922,0.0734 2.31201,0.0281 6.19744,0.0734 8.63433,0.10056 11.71272,0.13043 13.79299,0.15467 17.49584,0.20391 2.1871,0.029 6.32793,0.0699 9.20183,0.0907 7.01129,0.0508 6.70075,0.0103 6.72895,0.87691 0.0306,0.94 -0.44819,4.34215 -0.93597,6.6509 -1.33641,6.32537 -3.9162,12.62601 -7.24565,17.69608 -7.4536,11.35035 -18.15236,17.86832 -32.29176,19.67298 -2.68716,0.34298 -8.80545,0.49093 -11.23422,0.27166 z m 5.56902,-5.44786 c 0.0212,-4.00995 -0.11779,-4.72033 -1.05587,-5.39608 -0.57658,-0.41534 -0.74371,-0.42994 -4.30066,-0.37548 l -3.70078,0.0566 -0.24394,0.62384 c -0.49884,1.27574 -0.71526,7.82094 -0.26555,8.0309 0.47192,0.22033 4.0883,0.60622 6.20906,0.66255 1.31283,0.0348 2.60101,0.0691 2.86262,0.0763 0.4635,0.0129 0.47613,-0.0809 0.49514,-3.67902 z m 6.27926,3.10671 c 1.11971,-0.1416 2.19296,-0.29872 2.38504,-0.34918 0.30243,-0.0794 0.32913,-0.62616 0.1993,-4.07989 -0.096,-2.55544 -0.23917,-4.05661 -0.39835,-4.17866 -0.13666,-0.10476 -1.53589,-0.20011 -3.10941,-0.21189 -3.48344,-0.026 -3.84411,0.10901 -4.17545,1.56432 -0.11921,0.52354 -0.1669,2.48384 -0.10596,4.35622 l 0.11079,3.40428 1.52912,-0.12389 c 0.84099,-0.0682 2.44522,-0.23973 3.56491,-0.38131 z m 6.32834,-1.29659 c 1.79776,-0.47164 5.61292,-1.86951 5.98239,-2.19194 0.35923,-0.31348 0.14081,-3.77664 -0.29441,-4.66894 -0.75196,-1.54149 -1.02451,-1.64645 -4.02471,-1.54982 -4.38745,0.14125 -4.54799,0.3373 -4.38526,5.35332 0.0616,1.89766 0.18508,3.50635 0.27447,3.57489 0.0894,0.0685 0.2737,0.0859 0.40957,0.0384 0.13585,-0.0473 1.05294,-0.29758 2.03795,-0.556 z m -23.33431,-1.30197 c -0.0731,-2.24761 0.14292,-4.65903 0.51252,-5.71605 0.48124,-1.37692 -0.45207,-1.73342 -4.22976,-1.6157 -3.34874,0.10435 -3.78285,0.2915 -4.29212,1.85039 -0.39751,1.21681 -0.32326,4.84823 0.10455,5.11516 0.8487,0.52949 6.99764,2.55936 7.80639,2.57703 0.0938,0.002 0.13803,-0.99283 0.0984,-2.21082 z m 33.04888,-2.79346 c 1.17611,-0.69255 2.572,-1.6482 3.10199,-2.12366 l 0.96362,-0.86449 -0.32827,-0.9401 c -0.50765,-1.4539 -0.87738,-1.65906 -2.87772,-1.59672 -1.72304,0.0537 -3.47458,0.51207 -3.51374,0.91957 -0.1029,1.07134 0.15106,5.87565 0.31041,5.87082 0.11293,-0.004 1.1676,-0.57287 2.34371,-1.26542 z m -42.32322,-1.43561 -0.16624,-3.19849 -0.68945,-0.24739 c -0.76585,-0.27481 -4.17809,-0.35902 -4.58189,-0.11297 -0.15181,0.0925 -0.264,0.82044 -0.27323,1.7727 -0.0135,1.39039 0.0483,1.67033 0.44157,2.00669 0.57776,0.49398 4.95849,2.99291 5.23176,2.98439 0.11488,-0.004 0.13123,-1.40126 0.0375,-3.20484 z m 48.31821,-3.0716 c 0.48724,-0.59403 0.88211,-1.19558 0.87753,-1.33676 -0.005,-0.1412 -0.27217,-0.45898 -0.59461,-0.70618 -0.43323,-0.33215 -0.77722,-0.42838 -1.318,-0.36864 -0.6684,0.0738 -0.73593,0.14179 -0.77976,0.78487 -0.0431,0.63192 0.59895,2.71706 0.83434,2.70973 0.052,-0.002 0.49326,-0.48899 0.9805,-1.08302 z m -55.04694,-0.44537 c -0.17789,-0.9564 -0.53882,-1.23045 -1.57788,-1.19806 -0.92068,0.0286 -1.77138,0.54919 -1.75433,1.07338 0.005,0.15126 0.71765,0.85143 1.58379,1.55593 l 1.57485,1.2809 0.15191,-1.00601 c 0.0836,-0.55328 0.0933,-1.32105 0.0217,-1.70614 z m 36.90737,-19.8804 c 2.62536,-0.4322 4.31127,-1.33605 5.12754,-2.74897 0.53676,-0.92913 0.79255,-2.70552 0.77963,-5.41405 l -0.0111,-2.32283 -2.15431,-0.0503 c -1.18486,-0.0275 -4.71017,-0.0697 -7.83402,-0.0934 -3.12385,-0.0236 -6.01696,-0.0478 -6.42915,-0.0539 l -0.74942,-0.0108 0.17209,4.72917 c 0.19187,5.27274 0.22211,5.37432 1.73666,5.83976 1.63021,0.50098 6.67052,0.56848 9.36208,0.12536 z m -13.74997,-0.68783 c 1.94218,-0.86819 1.92998,-0.82426 1.59104,-5.73265 l -0.29561,-4.28082 -1.95438,-0.0539 c -2.18788,-0.0603 -11.3782,-0.14494 -13.654,-0.1257 l -1.47597,0.0125 0.13111,3.43422 c 0.14534,3.80705 0.34136,4.57296 1.42899,5.58394 1.66191,1.54476 4.37177,2.05594 9.60554,1.8119 3.21836,-0.15003 3.63791,-0.20898 4.62328,-0.64946 z m 29.71576,-2.12617 c 1.17829,-0.6803 2.15557,-3.32032 2.19022,-5.91659 l 0.0211,-1.58042 -1.70557,-0.0634 c -0.93805,-0.0348 -3.45263,-0.0715 -5.58793,-0.0814 l -3.88236,-0.018 -0.0725,1.93044 c -0.0399,1.06175 0.0212,2.49169 0.13561,3.17765 0.35769,2.1436 1.44816,2.79034 4.97067,2.948 2.37826,0.10648 3.20412,0.0232 3.93072,-0.39634 z m 9.74402,-0.56542 c 0.38932,-0.20979 0.97646,-0.78308 1.30475,-1.27402 0.49913,-0.74639 0.6172,-1.21621 0.72087,-2.86838 0.0681,-1.08668 0.14346,-2.14365 0.16727,-2.34885 0.0413,-0.35644 -0.1469,-0.37439 -4.22539,-0.40303 -2.34779,-0.0165 -4.31757,0.0126 -4.37727,0.0647 -0.0597,0.0521 -0.12694,1.46883 -0.14942,3.14831 l -0.0408,3.05361 0.61153,0.3035 c 1.52467,0.75672 4.8515,0.93677 5.98851,0.3241 z m -58.69783,0.88726 c 2.06178,-0.53964 2.63906,-1.86129 2.51244,-5.75217 l -0.0857,-2.63179 -1.55124,-0.0695 c -0.85315,-0.0382 -3.35829,-0.0689 -5.56695,-0.0682 l -4.01574,10e-4 0.0525,1.56088 c 0.12502,3.73682 1.28518,6.74166 2.80196,7.25587 0.81335,0.27575 4.35192,0.0967 5.85304,-0.29625 z m -11.86374,-0.19992 c 0.62148,-0.12917 1.38395,-0.40991 1.69435,-0.62385 l 0.56441,-0.38901 -0.1198,-3.68113 -0.11981,-3.68114 -1.08037,-0.0461 c -0.59421,-0.0254 -2.15301,-0.0286 -3.46402,-0.007 -1.31099,0.0214 -2.81919,0.003 -3.35155,-0.0415 l -0.96793,-0.0804 0.0545,1.67575 c 0.0998,3.06598 1.22913,5.97351 2.65175,6.82695 0.68508,0.41099 2.30048,0.42955 4.13844,0.0475 z m 76.35757,-2.39391 c 0.31163,-0.12744 0.607,-0.36664 0.6564,-0.53156 0.2207,-0.73687 0.5101,-4.11274 0.3753,-4.37761 -0.11886,-0.23352 -0.49623,-0.28321 -1.83393,-0.24152 -1.93317,0.0603 -1.82325,-0.061 -2.01545,2.22417 -0.20936,2.48921 0.94788,3.69117 2.81768,2.92652 z m -83.98112,0.50082 c 0.31544,-0.42086 0.32338,-0.64707 0.0616,-1.75686 -0.16524,-0.70059 -0.32611,-2.06258 -0.35748,-3.02663 -0.0653,-2.00365 -0.0313,-1.97554 -2.30096,-1.90956 l -1.21558,0.0349 0.18047,2.82865 c 0.1179,1.84757 0.28753,2.97582 0.48916,3.25299 0.28893,0.3972 1.88092,1.07399 2.50215,1.06373 0.1532,-0.002 0.44146,-0.22197 0.64059,-0.48765 z m 93.21732,-3.10405 c 1.77146,-5.95941 -0.0619,-9.97523 -5.22854,-11.4529 -1.32167,-0.378 -0.72992,-0.41851 1.40741,-0.0963 5.13768,0.77438 7.43363,3.25364 6.42516,6.93814 -0.34478,1.25973 -1.71799,3.95428 -2.35641,4.62382 -0.36335,0.38109 -0.36465,0.38103 -0.24761,-0.0129 z m -104.05505,0.50526 c -1.398251,-1.78962 -2.46206,-4.17328 -2.514228,-5.63354 -0.08593,-2.40253 1.666635,-4.23979 4.984518,-5.22575 1.18076,-0.35087 3.70294,-0.83124 3.83459,-0.7303 0.0454,0.0348 -0.52668,0.26607 -1.27135,0.51386 -1.87852,0.62506 -3.74626,2.1579 -4.54469,3.72978 -0.84915,1.67172 -0.90511,4.21789 -0.14383,6.54316 0.29484,0.90055 0.50543,1.6641 0.46799,1.69678 -0.0375,0.0327 -0.40329,-0.36962 -0.813,-0.89399 z"
       id="path1272"
       inkscape:connector-curvature="0" />
    <path
       style="fill:#916f6f;stroke-width:1"
       d="m 119.50475,202.06949 c -2.88754,-0.56653 -5.98096,-1.9364 -8.61885,-3.81674 -3.49449,-2.49093 -7.37317,-7.20889 -9.63942,-11.72522 -1.840155,-3.66717 -3.324282,-9.20053 -3.632552,-13.54341 -0.0928,-1.30733 -0.22585,-2.37696 -0.29568,-2.37696 -0.64888,0 -6.54354,-1.4971 -7.88967,-2.00378 -4.53513,-1.70702 -8.32863,-4.30745 -11.36505,-7.7907 -1.37863,-1.5815 -3.55783,-4.55641 -3.55783,-4.85691 0,-0.49555 2.89168,0.92477 6.08551,2.98903 0.92025,0.59479 1.72702,1.0276 1.79282,0.96181 0.0658,-0.0658 -0.47443,-0.81049 -1.20051,-1.65486 -1.20398,-1.40014 -2.70907,-3.57311 -2.70907,-3.91121 0,-0.39001 0.97199,0.0332 3.97302,1.72979 3.695,2.08895 6.60515,3.51769 6.78952,3.33332 0.0672,-0.0672 -0.43176,-0.87458 -1.10876,-1.79421 -0.677,-0.91963 -1.10287,-1.71474 -0.94639,-1.7669 0.2609,-0.087 1.68795,0.62688 7.16761,3.58545 3.13849,1.69453 3.0275,1.70607 3.71702,-0.38642 1.697547,-5.1516 4.792342,-11.2592 7.708082,-15.21192 12.38326,-16.7874 29.87742,-15.52276 39.18583,2.83271 2.21042,4.35878 3.38355,7.87585 5.10645,15.3092 0.68522,2.95634 0.70296,3.18653 0.30594,3.96875 -0.31181,0.61433 -0.45703,1.93187 -0.55812,5.06372 -0.14574,4.51475 -0.63623,7.43446 -1.85777,11.05862 -1.72375,5.11417 -4.56373,9.69436 -8.3286,13.43198 -3.66799,3.64143 -6.98436,5.46068 -11.74825,6.44469 -2.15799,0.44575 -6.4285,0.51212 -8.37528,0.13017 z m 10.16656,-1.57031 c 6.32405,-1.99415 11.7866,-7.06175 15.35657,-14.24627 2.41128,-4.85268 3.51415,-9.54465 3.74289,-15.92345 l 0.15701,-4.37875 -2.08761,-0.44234 c -1.14818,-0.24328 -2.59362,-0.52049 -3.21208,-0.61601 l -1.12448,-0.17367 -0.003,3.40725 c -0.007,7.29105 -1.85336,12.23369 -6.21423,16.63924 -2.41858,2.44336 -4.35613,3.58219 -7.43374,4.36931 -6.14792,1.57237 -12.42157,-0.90576 -16.3639,-6.46385 -2.27551,-3.20812 -3.22546,-5.6199 -4.37112,-11.09767 -0.32281,-1.54346 -0.32601,-1.54732 -1.15872,-1.39686 -0.45926,0.083 -2.53166,0.2321 -4.60533,0.33139 l -3.770315,0.18053 v 1.1239 c 0,3.36488 1.656075,9.91686 3.533815,13.981 3.2758,7.09003 9.43929,12.86734 15.64848,14.66801 2.7355,0.7933 2.87897,0.80873 6.61458,0.71164 2.62265,-0.0682 3.87947,-0.2281 5.29167,-0.6734 z m 3.23381,-24.21641 c 3.35199,-1.67037 5.11995,-6.58369 4.14996,-11.53311 l -0.13682,-0.69813 -4.18439,-0.19035 c -5.15666,-0.23457 -5.6932,-0.1366 -6.35484,1.16031 -0.70847,1.38871 -1.15148,4.12531 -0.9408,5.81153 0.64545,5.16605 3.64418,7.35468 7.46689,5.44975 z m -28.97164,-15.71056 c 17.43183,-2.95363 28.56502,-3.00395 41.81127,-0.189 2.50555,0.53245 2.84423,0.55492 2.84387,0.18867 -7.9e-4,-0.78977 -1.57996,-6.3048 -2.48275,-8.67051 -1.78724,-4.68337 -4.53592,-9.301 -7.40538,-12.44065 -4.00626,-4.38349 -9.3515,-6.68834 -14.63998,-6.31272 -8.26532,0.58705 -15.64603,6.87637 -21.3632,18.20421 -1.86797,3.70115 -3.849945,8.71181 -3.849945,9.73311 0,0.35446 -0.0844,0.36298 5.086115,-0.51311 z m 73.18579,41.51424 c -10.71557,-1.80825 -19.17265,-11.53064 -21.97395,-25.26158 -0.3479,-1.70527 -0.57272,-4.00484 -0.63243,-6.46874 -0.0679,-2.79981 -0.20591,-4.06158 -0.51586,-4.71475 -0.4088,-0.86148 -0.38162,-1.05809 0.79843,-5.77514 1.48135,-5.9214 2.39623,-8.59471 4.24712,-12.41013 1.96,-4.04035 3.82632,-6.75759 6.46928,-9.41885 7.01986,-7.06848 16.418,-8.03827 24.67247,-2.54594 6.67594,4.44202 13.1842,13.98383 16.23679,23.8049 0.26008,0.83674 0.59996,1.51925 0.75528,1.51668 0.15533,-0.003 1.5921,-0.71783 3.19283,-1.58945 3.91907,-2.13399 6.76616,-3.50187 6.93577,-3.33226 0.0767,0.0767 -0.4258,0.93175 -1.11675,1.90003 -1.67025,2.34065 -1.46247,2.2852 5.0289,-1.34204 3.33615,-1.86418 4.63021,-2.45628 4.63021,-2.11859 0,0.46564 -1.02227,2.04495 -2.29396,3.54395 -0.78724,0.92795 -1.36831,1.75021 -1.29129,1.82724 0.077,0.077 0.76639,-0.25581 1.53192,-0.73964 2.70885,-1.71205 4.84066,-2.88157 5.57408,-3.05796 0.73057,-0.1757 0.71983,-0.14487 -0.66146,1.89837 -4.58359,6.78019 -11.19624,10.83997 -20.31998,12.47526 l -1.18881,0.21307 -0.4455,3.31176 c -0.75267,5.59521 -2.09487,10.02128 -4.29065,14.14891 -3.90554,7.34167 -10.35509,12.58071 -17.23764,14.00234 -2.04587,0.42259 -6.00261,0.4873 -8.1048,0.13256 z m 8.90829,-1.429 c 8.17764,-2.14036 15.80943,-10.7538 18.4994,-20.8789 0.71079,-2.67539 1.16072,-5.3585 1.27175,-7.58389 l 0.0726,-1.45521 -3.30729,-0.1625 c -1.81901,-0.0894 -3.9208,-0.24779 -4.67065,-0.35203 -1.53026,-0.21272 -1.39905,-0.39213 -1.82745,2.4989 -0.29314,1.97822 -1.42955,5.29913 -2.5804,7.54063 -1.46055,2.8447 -5.06626,6.50267 -7.64813,7.75898 -9.66154,4.70121 -20.3485,-1.44765 -23.27612,-13.39216 -0.43337,-1.76814 -0.57015,-3.1814 -0.58779,-6.07369 l -0.023,-3.76937 -0.66146,0.0201 c -0.3638,0.0111 -1.79255,0.27852 -3.175,0.59437 l -2.51354,0.57428 0.0272,3.83646 c 0.0502,7.07066 1.68648,12.97301 5.23888,18.89778 4.12935,6.88703 9.46001,10.91524 16.16512,12.21545 2.28082,0.44229 6.79345,0.30725 8.99583,-0.26918 z M 175.81497,176.5738 c 1.20654,-0.62393 2.36331,-2.1617 2.82766,-3.75901 0.93096,-3.20241 -0.0617,-8.58934 -1.65661,-8.98962 -0.35145,-0.0882 -2.60619,-0.0736 -5.01054,0.0325 l -4.37156,0.19283 -0.27288,0.69867 c -0.15278,0.39119 -0.22177,1.81787 -0.15675,3.24185 0.097,2.12541 0.24701,2.8229 0.91289,4.24587 0.43823,0.93647 1.17401,2.13231 1.63506,2.65742 1.61029,1.83402 4.33926,2.58629 6.09273,1.67954 z m 29.92405,-15.32994 c 0,-0.55084 -2.43863,-6.96173 -3.43311,-9.02525 -2.96134,-6.14474 -8.28314,-12.82659 -12.50958,-15.70657 -8.30195,-5.65709 -18.06354,-4.14342 -24.85391,3.85394 -2.69133,3.16971 -5.21417,7.59576 -6.83138,11.98493 -0.78639,2.13427 -2.46485,8.46828 -2.29028,8.64284 0.0451,0.0451 1.24525,-0.21316 2.66707,-0.57383 5.86339,-1.48737 9.33568,-1.82695 18.80848,-1.8394 6.73769,-0.009 9.69783,0.0976 12.96459,0.46605 4.25386,0.47984 13.91899,1.97576 14.13025,2.18702 0.14135,0.14135 1.34787,0.15054 1.34787,0.0103 z M 89.498758,126.50993 c -0.68973,-0.68971 0.56087,-2.06152 4.12173,-4.52118 8.938472,-6.17426 20.788122,-9.0716 31.104072,-7.60522 3.72878,0.53004 7.15863,1.36127 9.8579,2.38907 5.86146,2.23187 13.74198,7.16515 13.74198,8.6026 0,0.83737 -0.52519,0.86244 -1.70057,0.0812 -0.62428,-0.41495 -2.25321,-1.50333 -3.61985,-2.41861 -5.04555,-3.37921 -10.82506,-5.70164 -16.67405,-6.70027 -2.82457,-0.48225 -4.42661,-1.46822 -8.76463,-1.34699 -5.34863,0.14947 -7.63158,1.51045 -11.72691,2.84722 -4.42483,1.44434 -9.624622,4.14673 -12.531192,6.51261 -2.79661,2.27638 -3.3678,2.60026 -3.80848,2.15957 z m 122.443422,-1.4664 c -4.14534,-3.26597 -7.80067,-5.29291 -12.44497,-6.90095 -4.83981,-1.67572 -8.83639,-2.30417 -14.65312,-2.30417 -9.40771,0 -17.90374,2.86075 -25.5202,8.59306 -1.23254,0.92764 -2.20094,1.4611 -2.65234,1.4611 -1.92107,0 0.35034,-2.25926 5.34067,-5.31213 6.62086,-4.05034 13.92489,-6.20795 22.03097,-6.50793 9.26962,-0.34304 18.16244,2.24317 26.20022,7.61954 2.82778,1.89148 5.13481,3.9883 4.9627,4.51053 -0.26233,0.79598 -1.20934,0.45969 -3.26393,-1.15905 z"
       id="path1300"
       inkscape:connector-curvature="0"
       sodipodi:nodetypes="ccccsccscccscsscsccssccsccccsccccccsssscscscsccccscccccsscsssssscscsccssccssscsccsccccsccccccccccsscccccccsccccccccccccccsccscccccssscccsscccscccscscscsccs" />
    <path
       style="color:#000000;font-style:normal;font-variant:normal;font-weight:normal;font-stretch:normal;font-size:medium;line-height:normal;font-family:sans-serif;font-variant-ligatures:normal;font-variant-position:normal;font-variant-caps:normal;font-variant-numeric:normal;font-variant-alternates:normal;font-feature-settings:normal;text-indent:0;text-align:start;text-decoration:none;text-decoration-line:none;text-decoration-style:solid;text-decoration-color:#000000;letter-spacing:normal;word-spacing:normal;text-transform:none;writing-mode:lr-tb;direction:ltr;text-orientation:mixed;dominant-baseline:auto;baseline-shift:baseline;text-anchor:start;white-space:normal;shape-padding:0;clip-rule:nonzero;display:inline;overflow:visible;visibility:visible;opacity:1;isolation:auto;mix-blend-mode:normal;color-interpolation:sRGB;color-interpolation-filters:linearRGB;solid-color:#000000;solid-opacity:1;vector-effect:none;fill:#818181;fill-opacity:0.97979796;fill-rule:nonzero;stroke:none;stroke-width:2;stroke-linecap:butt;stroke-linejoin:round;stroke-miterlimit:4;stroke-dasharray:none;stroke-dashoffset:0;stroke-opacity:1;paint-order:markers stroke fill;color-rendering:auto;image-rendering:auto;shape-rendering:auto;text-rendering:auto;enable-background:accumulate"
       d="M 150.40234,91.240234 C 94.139145,91.382415 48.583847,135.75054 48.681641,190.38086 c 0.09779,54.63032 45.810851,98.84427 102.074219,98.79687 56.26337,-0.0474 101.89844,-44.33835 101.89844,-98.96875 h -2 c 0,53.51686 -44.68305,96.92224 -99.89844,96.96875 -55.215386,0.0465 -99.978419,-43.284 -100.074219,-96.80078 -0.0958,-53.51677 44.511343,-96.997183 99.726559,-97.136716 55.21522,-0.139532 100.0545,43.116276 100.2461,96.632816 l 2,-0.008 C 252.45871,135.23517 206.66554,91.098054 150.40234,91.240234 Z"
       id="path1302"
       inkscape:connector-curvature="0" />
  </g>
</svg>
