<?xml version="1.0" encoding="UTF-8" standalone="no"?>
<!-- Created with Inkscape (http://www.inkscape.org/) -->

<svg
   xmlns:dc="http://purl.org/dc/elements/1.1/"
   xmlns:cc="http://creativecommons.org/ns#"
   xmlns:rdf="http://www.w3.org/1999/02/22-rdf-syntax-ns#"
   xmlns:svg="http://www.w3.org/2000/svg"
   xmlns="http://www.w3.org/2000/svg"
   xmlns:xlink="http://www.w3.org/1999/xlink"
   xmlns:sodipodi="http://sodipodi.sourceforge.net/DTD/sodipodi-0.dtd"
   xmlns:inkscape="http://www.inkscape.org/namespaces/inkscape"
   width="297mm"
   height="210mm"
   viewBox="0 0 297 210"
   version="1.1"
   id="svg8"
   inkscape:version="0.92.2 (5c3e80d, 2017-08-06)"
   sodipodi:docname="gato.svg">
  <defs
     id="defs2">
    <linearGradient
       inkscape:collect="always"
       id="linearGradient991">
      <stop
         style="stop-color:#000000;stop-opacity:1;"
         offset="0"
         id="stop987" />
      <stop
         style="stop-color:#000000;stop-opacity:0;"
         offset="1"
         id="stop989" />
    </linearGradient>
    <linearGradient
       inkscape:collect="always"
       xlink:href="#linearGradient991"
       id="linearGradient993"
       x1="135.6966"
       y1="200.3219"
       x2="199.261"
       y2="201.61087"
       gradientUnits="userSpaceOnUse"
       gradientTransform="matrix(0.94478339,0,0,1,7.492707,0)" />
  </defs>
  <sodipodi:namedview
     id="base"
     pagecolor="#ffffff"
     bordercolor="#666666"
     borderopacity="1.0"
     inkscape:pageopacity="0.0"
     inkscape:pageshadow="2"
     inkscape:zoom="0.61580177"
     inkscape:cx="602.19691"
     inkscape:cy="430.66153"
     inkscape:document-units="mm"
     inkscape:current-layer="layer1"
     showgrid="false"
     inkscape:measure-start="0,0"
     inkscape:measure-end="0,0"
     inkscape:window-width="1366"
     inkscape:window-height="705"
     inkscape:window-x="-8"
     inkscape:window-y="-8"
     inkscape:window-maximized="1" />
  <metadata
     id="metadata5">
    <rdf:RDF>
      <cc:Work
         rdf:about="">
        <dc:format>image/svg+xml</dc:format>
        <dc:type
           rdf:resource="http://purl.org/dc/dcmitype/StillImage" />
        <dc:title></dc:title>
      </cc:Work>
    </rdf:RDF>
  </metadata>
  <g
     inkscape:label="Capa 1"
     inkscape:groupmode="layer"
     id="layer1"
     transform="translate(0,-87)">
    <rect
       style="opacity:1;fill:#87decd;fill-opacity:1;fill-rule:nonzero;stroke:none;stroke-width:1.60000002;stroke-linecap:butt;stroke-linejoin:round;stroke-miterlimit:4;stroke-dasharray:none;stroke-dashoffset:0;stroke-opacity:1;paint-order:markers stroke fill"
       id="rect829"
       width="297.15295"
       height="212.48035"
       x="1.1981974"
       y="87.315453" />
    <path
       style="opacity:0.544;fill:url(#linearGradient993);fill-opacity:1;stroke:none;stroke-width:0.26458332px;stroke-linecap:butt;stroke-linejoin:miter;stroke-opacity:1"
       d="m 135.6966,116.3956 c 7.72792,-7.31146 32.27228,9.43512 51.46146,18.52045 54.29131,46.85651 19.55632,96.33143 -0.49855,145.37459 -12.09002,-0.22459 -24.92412,0.83063 -31.9065,-8.17897 z"
       id="path841"
       inkscape:connector-curvature="0"
       sodipodi:nodetypes="ccccc" />
    <path
       style="opacity:1;fill:#483737;fill-opacity:1;fill-rule:nonzero;stroke:none;stroke-width:6.04724407;stroke-linecap:butt;stroke-linejoin:round;stroke-miterlimit:4;stroke-dasharray:none;stroke-dashoffset:0;stroke-opacity:1;paint-order:markers stroke fill"
       d="m 572.40234,79.96875 -2.23828,31.67773 C 559.78818,105.97945 548.12905,103.0047 536.27539,103 c -12.34881,0.03 -24.47077,3.28286 -35.14062,9.42969 l 11.73429,-1.32822 -55.17765,-15.779204 c 2.87622,17.641214 26.30359,34.301894 23.91201,46.341654 l -0.96865,-11.3983 c -9.37555,12.07582 -14.47224,26.86624 -14.50391,42.08985 0.005,35.70533 27.42636,65.57235 63.36914,69.02148 -62.26431,6.2124 -109.71709,58.76268 -109.78125,121.57422 0.0727,62.41352 46.95141,114.75884 108.76758,121.45117 l -3.13477,0.84766 c -38.73415,72.72862 3.293,178.99227 67.46485,222.37891 66.32492,44.84231 93.92642,-2.95694 40.31836,-65.54297 -21.36039,-24.93767 -88.1673,-103.6924 -61.57227,-160.76172 53.95123,-13.76694 91.74509,-62.49215 91.81641,-118.37305 -0.0792,-65.54286 -51.61605,-119.37105 -116.85352,-122.04883 34.38312,-5.02192 59.86224,-34.18174 59.89453,-68.54687 -0.0302,-9.8105 -2.16512,-19.50304 -6.26367,-28.4375 -2.91194,-18.43499 -24.36318,-45.222492 -27.75391,-63.94922 z"
       transform="matrix(0.26458333,0,0,0.26458333,0,87)"
       id="path817"
       inkscape:connector-curvature="0"
       sodipodi:nodetypes="cccccccccccccsscccccc" />
    <circle
       style="opacity:1;fill:#ffffff;fill-opacity:1;fill-rule:nonzero;stroke:none;stroke-width:1.60000002;stroke-linecap:butt;stroke-linejoin:round;stroke-miterlimit:4;stroke-dasharray:none;stroke-dashoffset:0;stroke-opacity:1;paint-order:markers stroke fill"
       id="path831"
       cx="136.3372"
       cy="129.87924"
       r="6.1425881" />
    <ellipse
       style="opacity:1;fill:#ffffff;fill-opacity:1;fill-rule:nonzero;stroke:none;stroke-width:1.60000002;stroke-linecap:butt;stroke-linejoin:round;stroke-miterlimit:4;stroke-dasharray:none;stroke-dashoffset:0;stroke-opacity:1;paint-order:markers stroke fill"
       id="path835"
       cx="148.62239"
       cy="129.59682"
       rx="5.8601704"
       ry="5.7189617" />
    <ellipse
       style="opacity:1;fill:#000000;fill-opacity:1;fill-rule:nonzero;stroke:none;stroke-width:1.60000002;stroke-linecap:butt;stroke-linejoin:round;stroke-miterlimit:4;stroke-dasharray:none;stroke-dashoffset:0;stroke-opacity:1;paint-order:markers stroke fill"
       id="path837"
       cx="139.79684"
       cy="130.30287"
       rx="1.4120893"
       ry="1.7651116" />
    <ellipse
       style="opacity:1;fill:#000000;fill-opacity:1;fill-rule:nonzero;stroke:none;stroke-width:1.60000002;stroke-linecap:butt;stroke-linejoin:round;stroke-miterlimit:4;stroke-dasharray:none;stroke-dashoffset:0;stroke-opacity:1;paint-order:markers stroke fill"
       id="path839"
       cx="144.59795"
       cy="129.94984"
       rx="1.2708802"
       ry="1.694507" />
  </g>
</svg>
