<?xml version="1.0" encoding="UTF-8" standalone="no"?>
<!-- Created with Inkscape (http://www.inkscape.org/) -->

<svg
   xmlns:dc="http://purl.org/dc/elements/1.1/"
   xmlns:cc="http://creativecommons.org/ns#"
   xmlns:rdf="http://www.w3.org/1999/02/22-rdf-syntax-ns#"
   xmlns:svg="http://www.w3.org/2000/svg"
   xmlns="http://www.w3.org/2000/svg"
   xmlns:sodipodi="http://sodipodi.sourceforge.net/DTD/sodipodi-0.dtd"
   xmlns:inkscape="http://www.inkscape.org/namespaces/inkscape"
   width="297mm"
   height="210mm"
   viewBox="0 0 297 210"
   version="1.1"
   id="svg8"
   inkscape:version="0.92.2 (5c3e80d, 2017-08-06)"
   sodipodi:docname="llevar.svg">
  <defs
     id="defs2">
    <filter
       inkscape:menu-tooltip="Glowing metal texture"
       inkscape:menu="Bevels"
       inkscape:label="Glowing Metal"
       style="color-interpolation-filters:sRGB;"
       id="filter908">
      <feGaussianBlur
         stdDeviation="3"
         result="result10"
         id="feGaussianBlur890" />
      <feBlend
         in2="SourceGraphic"
         result="result5"
         mode="multiply"
         in="result10"
         id="feBlend892" />
      <feComposite
         in2="SourceGraphic"
         in="result5"
         result="fbSourceGraphic"
         operator="over"
         id="feComposite894" />
      <feGaussianBlur
         result="result9"
         stdDeviation="5"
         id="feGaussianBlur896" />
      <feSpecularLighting
         in="result9"
         result="result1"
         lighting-color="rgb(255,255,255)"
         surfaceScale="1"
         specularConstant="2.2"
         specularExponent="45"
         id="feSpecularLighting900">
        <fePointLight
           x="-5000"
           y="-10000"
           z="20000"
           id="fePointLight898" />
      </feSpecularLighting>
      <feComposite
         in2="fbSourceGraphic"
         in="result1"
         result="result2"
         operator="in"
         id="feComposite902" />
      <feComposite
         in="result2"
         result="result4"
         operator="arithmetic"
         k2="2"
         k3="0.8"
         in2="fbSourceGraphic"
         id="feComposite904" />
      <feBlend
         in="result4"
         in2="result4"
         mode="multiply"
         id="feBlend906" />
    </filter>
    <filter
       inkscape:collect="always"
       style="color-interpolation-filters:sRGB"
       id="filter1137"
       x="-0.082632756"
       width="1.1652655"
       y="-0.042809585"
       height="1.0856192">
      <feGaussianBlur
         inkscape:collect="always"
         stdDeviation="2.7014872"
         id="feGaussianBlur1139" />
    </filter>
  </defs>
  <sodipodi:namedview
     id="base"
     pagecolor="#ffffff"
     bordercolor="#666666"
     borderopacity="1.0"
     inkscape:pageopacity="0.0"
     inkscape:pageshadow="2"
     inkscape:zoom="0.58"
     inkscape:cx="461.8674"
     inkscape:cy="400.2882"
     inkscape:document-units="mm"
     inkscape:current-layer="layer1"
     showgrid="false"
     inkscape:window-width="1366"
     inkscape:window-height="705"
     inkscape:window-x="-8"
     inkscape:window-y="-8"
     inkscape:window-maximized="1" />
  <metadata
     id="metadata5">
    <rdf:RDF>
      <cc:Work
         rdf:about="">
        <dc:format>image/svg+xml</dc:format>
        <dc:type
           rdf:resource="http://purl.org/dc/dcmitype/StillImage" />
        <dc:title></dc:title>
      </cc:Work>
    </rdf:RDF>
  </metadata>
  <g
     inkscape:label="Capa 1"
     inkscape:groupmode="layer"
     id="layer1"
     transform="translate(0,-87)">
    <path
       style="fill:#000000;stroke:#000000;stroke-width:0.26458332px;stroke-linecap:butt;stroke-linejoin:miter;stroke-opacity:1"
       d="m 159.10398,122.28363 1.47073,150.99511 31.47629,-5.93032 5.93032,-69.79525 24.63362,-41.05604 -29.1954,-28.73922 z"
       id="path1044"
       inkscape:connector-curvature="0" />
    <rect
       style="opacity:1;fill:#dee3db;fill-opacity:1;fill-rule:nonzero;stroke:none;stroke-width:1.20000005;stroke-linecap:butt;stroke-linejoin:round;stroke-miterlimit:4;stroke-dasharray:none;stroke-dashoffset:0;stroke-opacity:1;paint-order:markers stroke fill"
       id="rect1042"
       width="297.88434"
       height="213.0352"
       x="0"
       y="86.245697"
       ry="0" />
    <path
       inkscape:connector-curvature="0"
       style="opacity:1;fill:#000000;fill-opacity:1;fill-rule:nonzero;stroke:none;stroke-width:1.20000005;stroke-linecap:butt;stroke-linejoin:round;stroke-miterlimit:4;stroke-dasharray:none;stroke-dashoffset:0;stroke-opacity:1;paint-order:markers stroke fill;filter:url(#filter1137)"
       d="m 165.03436,125.93302 a 39.231324,36.722344 0 0 0 -39.12888,36.78639 39.231324,36.722344 0 0 0 30.57075,35.71823 c -0.054,0.1697 -0.10445,0.34107 -0.14935,0.5147 l -6.01617,2.9347 3.64939,2.73679 -5.47408,6.38669 5.93038,3.64939 -3.64939,3.42098 3.19309,2.28099 -5.01778,7.29878 5.24619,3.4215 -2.0531,3.19309 2.50889,1.82469 -5.24568,3.8778 4.10518,3.64939 -4.78989,7.07089 6.1588,2.73678 -3.4215,4.562 1.82469,1.36839 -2.05258,4.56199 2.50889,1.1405 -3.64939,3.19309 6.68228,3.09904 c 1.47522,3.54435 4.96489,6.02443 9.05578,6.02443 5.43353,0 9.80767,-4.37413 9.80767,-9.80767 v -66.14583 c 0,-1.14917 -0.19762,-2.25013 -0.55759,-3.27318 a 39.231324,36.722344 0 0 0 29.29692,-35.50223 v -0.12712 a 39.231324,36.722344 0 0 0 -39.33352,-36.59519 z"
       id="path1033-5" />
    <path
       style="opacity:1;fill:#786721;fill-opacity:1;fill-rule:nonzero;stroke:none;stroke-width:4.53543329;stroke-linecap:butt;stroke-linejoin:round;stroke-miterlimit:4;stroke-dasharray:none;stroke-dashoffset:0;stroke-opacity:1;paint-order:markers stroke fill"
       d="M 601.33789 133.35547 A 148.27587 138.79311 0 0 0 453.44922 272.39062 A 148.27587 138.79311 0 0 0 568.99219 407.38867 C 568.78815 408.03006 568.59742 408.67775 568.42773 409.33398 L 545.68945 420.42578 L 559.48242 430.76953 L 538.79297 454.9082 L 561.20703 468.70117 L 547.41406 481.63086 L 559.48242 490.25195 L 540.51758 517.83789 L 560.3457 530.76953 L 552.58594 542.83789 L 562.06836 549.73438 L 542.24219 564.39062 L 557.75781 578.18359 L 539.6543 604.9082 L 562.93164 615.25195 L 550 632.49414 L 556.89648 637.66602 L 549.13867 654.9082 L 558.62109 659.21875 L 544.82812 671.28711 L 570.08398 683 C 575.65962 696.39599 588.84892 705.76953 604.31055 705.76953 C 624.84675 705.76953 641.37891 689.23738 641.37891 668.70117 L 641.37891 418.70117 C 641.37891 414.35783 640.632 410.19673 639.27148 406.33008 A 148.27587 138.79311 0 0 0 750 272.14844 L 750 271.66797 A 148.27587 138.79311 0 0 0 601.33789 133.35547 z "
       transform="matrix(0.26458333,0,0,0.26458333,0,87)"
       id="path1033" />
    <path
       style="opacity:1;fill:#b3b3b3;fill-opacity:1;fill-rule:nonzero;stroke:none;stroke-width:1.20000005;stroke-linecap:butt;stroke-linejoin:round;stroke-miterlimit:4;stroke-dasharray:none;stroke-dashoffset:0;stroke-opacity:1;paint-order:markers stroke fill"
       id="path1040"
       sodipodi:type="arc"
       sodipodi:cx="159.6035"
       sodipodi:cy="144.99702"
       sodipodi:rx="10.948276"
       sodipodi:ry="9.8078308"
       sodipodi:start="0"
       sodipodi:end="6.2797121"
       sodipodi:open="true"
       d="m 170.55178,144.99702 a 10.948276,9.8078308 0 0 1 -10.93877,9.80783 10.948276,9.8078308 0 0 1 -10.95777,-9.79079 10.948276,9.8078308 0 0 1 10.91974,-9.82483 10.948276,9.8078308 0 0 1 10.97673,9.77373" />
  </g>
</svg>
