<?xml version="1.0" encoding="UTF-8" standalone="no"?>
<!-- Created with Inkscape (http://www.inkscape.org/) -->

<svg
   xmlns:dc="http://purl.org/dc/elements/1.1/"
   xmlns:cc="http://creativecommons.org/ns#"
   xmlns:rdf="http://www.w3.org/1999/02/22-rdf-syntax-ns#"
   xmlns:svg="http://www.w3.org/2000/svg"
   xmlns="http://www.w3.org/2000/svg"
   xmlns:xlink="http://www.w3.org/1999/xlink"
   xmlns:sodipodi="http://sodipodi.sourceforge.net/DTD/sodipodi-0.dtd"
   xmlns:inkscape="http://www.inkscape.org/namespaces/inkscape"
   width="297mm"
   height="210mm"
   viewBox="0 0 297 210"
   version="1.1"
   id="svg8"
   inkscape:version="0.92.2 (5c3e80d, 2017-08-06)"
   sodipodi:docname="monta.svg">
  <defs
     id="defs2">
    <linearGradient
       inkscape:collect="always"
       id="linearGradient991">
      <stop
         style="stop-color:#000000;stop-opacity:1;"
         offset="0"
         id="stop987" />
      <stop
         style="stop-color:#000000;stop-opacity:0;"
         offset="1"
         id="stop989" />
    </linearGradient>
    <linearGradient
       inkscape:collect="always"
       xlink:href="#linearGradient991"
       id="linearGradient993"
       x1="135.6966"
       y1="200.3219"
       x2="199.261"
       y2="201.61087"
       gradientUnits="userSpaceOnUse"
       gradientTransform="matrix(0.94478339,0,0,1,7.492707,0)" />
  </defs>
  <sodipodi:namedview
     id="base"
     pagecolor="#ffffff"
     bordercolor="#666666"
     borderopacity="1.0"
     inkscape:pageopacity="0.0"
     inkscape:pageshadow="2"
     inkscape:zoom="0.56984375"
     inkscape:cx="599.67209"
     inkscape:cy="414.41944"
     inkscape:document-units="mm"
     inkscape:current-layer="layer1"
     showgrid="false"
     inkscape:measure-start="0,0"
     inkscape:measure-end="0,0"
     inkscape:window-width="1366"
     inkscape:window-height="705"
     inkscape:window-x="-8"
     inkscape:window-y="-8"
     inkscape:window-maximized="1"
     showguides="false" />
  <metadata
     id="metadata5">
    <rdf:RDF>
      <cc:Work
         rdf:about="">
        <dc:format>image/svg+xml</dc:format>
        <dc:type
           rdf:resource="http://purl.org/dc/dcmitype/StillImage" />
        <dc:title></dc:title>
      </cc:Work>
    </rdf:RDF>
  </metadata>
  <g
     inkscape:label="Capa 1"
     inkscape:groupmode="layer"
     id="layer1"
     transform="translate(0,-87)">
    <rect
       style="opacity:1;fill:#2c89a0;fill-opacity:1;fill-rule:nonzero;stroke:none;stroke-width:5.69999981;stroke-linecap:butt;stroke-linejoin:round;stroke-miterlimit:4;stroke-dasharray:none;stroke-dashoffset:0;stroke-opacity:0.97979796;paint-order:markers stroke fill"
       id="rect1371"
       width="297.6218"
       height="128.61348"
       x="-0.92861706"
       y="87.13253" />
    <path
       style="opacity:1;fill:#784421;fill-opacity:1;fill-rule:nonzero;stroke:none;stroke-width:36.28346634;stroke-linecap:butt;stroke-linejoin:round;stroke-miterlimit:4;stroke-dasharray:none;stroke-dashoffset:0;stroke-opacity:0.98989898;paint-order:markers stroke fill"
       d=""
       id="path1171"
       inkscape:connector-curvature="0"
       transform="matrix(0.26458333,0,0,0.26458333,0,87)" />
    <path
       style="fill:#ffcc00;stroke:none;stroke-width:0.26458332px;stroke-linecap:butt;stroke-linejoin:miter;stroke-opacity:1"
       d="m -0.46430855,205.06691 30.18005655,-24.60835 3.714467,17.64372 c 0,0 43.180698,-59.8958 45.037933,-55.71703 1.857232,4.17878 14.857872,61.28873 14.857872,61.28873 l 22.28681,-12.53633 c 0,0 11.60771,7.42894 15.32218,8.82186 3.71447,1.39293 46.43086,-67.32474 48.28809,-66.86043 1.85724,0.46431 42.25208,56.64565 44.57362,59.8958 2.32155,3.25016 13.46495,-17.17941 13.46495,-17.17941 0,0 15.78649,12.53633 22.28681,11.60771 6.50032,-0.92861 38.07331,-45.50223 38.07331,-45.50223 l 0.4643,154.15043 -298.55039855,1.39293 z"
       id="path1355"
       inkscape:connector-curvature="0"
       sodipodi:nodetypes="ccccccccscccccc" />
    <path
       style="fill:#ffeeaa;stroke:none;stroke-width:0.26458332px;stroke-linecap:butt;stroke-linejoin:miter;stroke-opacity:1"
       d="m 29.715748,180.45856 -10.679097,41.78777 18.108033,1.39292 -24.144044,19.03665 77.07522,5.5717 -90.54016855,17.17942 v -60.36011 z"
       id="path1357"
       inkscape:connector-curvature="0" />
    <path
       style="fill:#ffeeaa;stroke:none;stroke-width:0.26458332px;stroke-linecap:butt;stroke-linejoin:miter;stroke-opacity:1"
       d="m 77.539529,141.92094 -14.857873,84.96847 42.716384,4.17878 z"
       id="path1359"
       inkscape:connector-curvature="0" />
    <path
       style="fill:#ffe680;stroke:none;stroke-width:0.26458332px;stroke-linecap:butt;stroke-linejoin:miter;stroke-opacity:1"
       d="m 115.61283,191.13765 11.60771,45.50224 51.07395,-104.00512 -46.89517,67.32474 z"
       id="path1361"
       inkscape:connector-curvature="0" />
    <path
       style="fill:#ffeeaa;stroke:none;stroke-width:0.26458332px;stroke-linecap:butt;stroke-linejoin:miter;stroke-opacity:1"
       d="m 178.29449,132.63477 19.96526,111.89836 -63.61027,18.57235 c 0,0 101.68358,-6.50032 104.00512,-6.50032 2.32154,0 36.21607,-1.39293 36.21607,-1.39293 L 224.26103,207.38845 V 193.9235 c -14.91241,-20.22469 -24.46957,-37.77176 -45.96654,-61.28873 z"
       id="path1363"
       inkscape:connector-curvature="0"
       sodipodi:nodetypes="cccscccc" />
    <path
       style="fill:#ffe680;stroke:none;stroke-width:0.26458332px;stroke-linecap:butt;stroke-linejoin:miter;stroke-opacity:1"
       d="m 297.6218,141.92095 -35.75178,44.57362 v 0 c 28.15444,19.48734 37.25694,19.92273 35.75178,9.75047 z"
       id="path1365"
       inkscape:connector-curvature="0"
       sodipodi:nodetypes="ccccc" />
    <rect
       style="opacity:1;fill:#ffe680;fill-opacity:1;fill-rule:nonzero;stroke:none;stroke-width:5.69999981;stroke-linecap:butt;stroke-linejoin:round;stroke-miterlimit:4;stroke-dasharray:none;stroke-dashoffset:0;stroke-opacity:0.97979796;paint-order:markers stroke fill"
       id="rect1367"
       width="14.393566"
       height="2.3215427"
       x="244.2263"
       y="311.85788" />
    <rect
       style="opacity:1;fill:#00ccff;fill-opacity:1;fill-rule:nonzero;stroke:none;stroke-width:5.69999981;stroke-linecap:butt;stroke-linejoin:round;stroke-miterlimit:4;stroke-dasharray:none;stroke-dashoffset:0;stroke-opacity:0.97979796;paint-order:markers stroke fill"
       id="rect1369"
       width="51.538246"
       height="3.2501607"
       x="258.61987"
       y="308.60773" />
    <path
       style="opacity:1;fill:#ffd42a;fill-opacity:1;fill-rule:nonzero;stroke:none;stroke-width:5.69999981;stroke-linecap:butt;stroke-linejoin:round;stroke-miterlimit:4;stroke-dasharray:none;stroke-dashoffset:0;stroke-opacity:0.97979796;paint-order:markers stroke fill"
       id="path1373"
       sodipodi:type="arc"
       sodipodi:cx="253.28032"
       sodipodi:cy="136.34924"
       sodipodi:rx="27.62636"
       sodipodi:ry="26.465588"
       sodipodi:start="0"
       sodipodi:end="6.2797121"
       sodipodi:open="true"
       d="m 280.90668,136.34924 a 27.62636,26.465588 0 0 1 -27.60237,26.46558 27.62636,26.465588 0 0 1 -27.65031,-26.41962 27.62636,26.465588 0 0 1 27.55436,-26.51145 27.62636,26.465588 0 0 1 27.69815,26.37357" />
    <path
       style="opacity:1;fill:#ececec;fill-opacity:1;fill-rule:nonzero;stroke:none;stroke-width:5.69999981;stroke-linecap:butt;stroke-linejoin:round;stroke-miterlimit:4;stroke-dasharray:none;stroke-dashoffset:0;stroke-opacity:0.97979796;paint-order:markers stroke fill"
       id="path1375"
       sodipodi:type="arc"
       sodipodi:cx="42.019924"
       sodipodi:cy="100.13317"
       sodipodi:rx="11.37556"
       sodipodi:ry="5.1073942"
       sodipodi:start="0"
       sodipodi:end="6.2797121"
       sodipodi:open="true"
       d="m 53.395484,100.13317 a 11.37556,5.1073942 0 0 1 -11.365682,5.10739 11.37556,5.1073942 0 0 1 -11.38542,-5.09852 11.37556,5.1073942 0 0 1 11.34591,-5.116246 11.37556,5.1073942 0 0 1 11.405123,5.089636" />
    <path
       style="opacity:1;fill:#ececec;fill-opacity:1;fill-rule:nonzero;stroke:none;stroke-width:5.69999981;stroke-linecap:butt;stroke-linejoin:round;stroke-miterlimit:4;stroke-dasharray:none;stroke-dashoffset:0;stroke-opacity:0.97979796;paint-order:markers stroke fill"
       id="path1377"
       sodipodi:type="arc"
       sodipodi:cx="63.610237"
       sodipodi:cy="102.44585"
       sodipodi:rx="19.500994"
       sodipodi:ry="8.3664246"
       sodipodi:start="0"
       sodipodi:end="6.2797121"
       sodipodi:open="true"
       d="m 83.111231,102.44585 a 19.500994,8.3664246 0 0 1 -19.484061,8.36642 19.500994,8.3664246 0 0 1 -19.517897,-8.35189 19.500994,8.3664246 0 0 1 19.450166,-8.38093 19.500994,8.3664246 0 0 1 19.551674,8.33734" />
    <path
       style="opacity:1;fill:#ececec;fill-opacity:1;fill-rule:nonzero;stroke:none;stroke-width:5.69999981;stroke-linecap:butt;stroke-linejoin:round;stroke-miterlimit:4;stroke-dasharray:none;stroke-dashoffset:0;stroke-opacity:0.97979796;paint-order:markers stroke fill"
       id="path1379"
       sodipodi:type="arc"
       sodipodi:cx="87.522163"
       sodipodi:cy="102.45472"
       sodipodi:rx="12.304176"
       sodipodi:ry="7.4289365"
       sodipodi:start="0"
       sodipodi:end="6.2797121"
       sodipodi:open="true"
       d="m 99.82634,102.45472 a 12.304176,7.4289365 0 0 1 -12.293493,7.42893 12.304176,7.4289365 0 0 1 -12.314841,-7.41603 12.304176,7.4289365 0 0 1 12.272106,-7.441812 12.304176,7.4289365 0 0 1 12.336154,7.403112" />
    <path
       style="opacity:1;fill:#ececec;fill-opacity:1;fill-rule:nonzero;stroke:none;stroke-width:5.69999981;stroke-linecap:butt;stroke-linejoin:round;stroke-miterlimit:4;stroke-dasharray:none;stroke-dashoffset:0;stroke-opacity:0.97979796;paint-order:markers stroke fill"
       id="path1381"
       sodipodi:type="arc"
       sodipodi:cx="167.84753"
       sodipodi:cy="107.0978"
       sodipodi:rx="16.947262"
       sodipodi:ry="3.7144682"
       sodipodi:start="0"
       sodipodi:end="6.2797121"
       sodipodi:open="true"
       d="m 184.7948,107.0978 a 16.947262,3.7144682 0 0 1 -16.93255,3.71447 16.947262,3.7144682 0 0 1 -16.96195,-3.70802 16.947262,3.7144682 0 0 1 16.90309,-3.7209 16.947262,3.7144682 0 0 1 16.9913,3.70155" />
    <path
       style="opacity:1;fill:#ececec;fill-opacity:1;fill-rule:nonzero;stroke:none;stroke-width:5.69999981;stroke-linecap:butt;stroke-linejoin:round;stroke-miterlimit:4;stroke-dasharray:none;stroke-dashoffset:0;stroke-opacity:0.97979796;paint-order:markers stroke fill"
       id="path1383"
       sodipodi:type="arc"
       sodipodi:cx="146.7215"
       sodipodi:cy="108.95504"
       sodipodi:rx="13.00064"
       sodipodi:ry="4.1787772"
       sodipodi:start="0"
       sodipodi:end="6.2797121"
       sodipodi:open="true"
       d="m 159.72214,108.95504 a 13.00064,4.1787772 0 0 1 -12.98935,4.17878 13.00064,4.1787772 0 0 1 -13.01191,-4.17152 13.00064,4.1787772 0 0 1 12.96675,-4.18602 13.00064,4.1787772 0 0 1 13.03443,4.16425" />
    <path
       style="opacity:1;fill:#ececec;fill-opacity:1;fill-rule:nonzero;stroke:none;stroke-width:5.69999981;stroke-linecap:butt;stroke-linejoin:round;stroke-miterlimit:4;stroke-dasharray:none;stroke-dashoffset:0;stroke-opacity:0.97979796;paint-order:markers stroke fill"
       id="path1385"
       sodipodi:type="arc"
       sodipodi:cx="185.95557"
       sodipodi:cy="106.86565"
       sodipodi:rx="15.090028"
       sodipodi:ry="6.7324743"
       sodipodi:start="0"
       sodipodi:end="6.2797121"
       sodipodi:open="true"
       d="m 201.04559,106.86565 a 15.090028,6.7324743 0 0 1 -15.07692,6.73247 15.090028,6.7324743 0 0 1 -15.10311,-6.72078 15.090028,6.7324743 0 0 1 15.0507,-6.74415 15.090028,6.7324743 0 0 1 15.12924,6.70907" />
    <path
       style="opacity:1;fill:#ececec;fill-opacity:1;fill-rule:nonzero;stroke:none;stroke-width:5.69999981;stroke-linecap:butt;stroke-linejoin:round;stroke-miterlimit:4;stroke-dasharray:none;stroke-dashoffset:0;stroke-opacity:0.97979796;paint-order:markers stroke fill"
       id="path1387"
       sodipodi:type="arc"
       sodipodi:cx="117.70222"
       sodipodi:cy="138.67078"
       sodipodi:rx="12.768485"
       sodipodi:ry="2.3215427"
       sodipodi:start="0"
       sodipodi:end="6.2797121"
       sodipodi:open="true"
       d="m 130.4707,138.67078 a 12.768485,2.3215427 0 0 1 -12.7574,2.32154 12.768485,2.3215427 0 0 1 -12.77955,-2.31751 12.768485,2.3215427 0 0 1 12.73521,-2.32557 12.768485,2.3215427 0 0 1 12.80167,2.31347" />
    <path
       style="opacity:1;fill:#ececec;fill-opacity:1;fill-rule:nonzero;stroke:none;stroke-width:5.69999981;stroke-linecap:butt;stroke-linejoin:round;stroke-miterlimit:4;stroke-dasharray:none;stroke-dashoffset:0;stroke-opacity:0.97979796;paint-order:markers stroke fill"
       id="path1389"
       sodipodi:type="arc"
       sodipodi:cx="101.68358"
       sodipodi:cy="138.43863"
       sodipodi:rx="12.072022"
       sodipodi:ry="4.4109311"
       sodipodi:start="0"
       sodipodi:end="6.2797121"
       sodipodi:open="true"
       d="m 113.7556,138.43863 a 12.072022,4.4109311 0 0 1 -12.06154,4.41093 12.072022,4.4109311 0 0 1 -12.082486,-4.40327 12.072022,4.4109311 0 0 1 12.040556,-4.41858 12.072022,4.4109311 0 0 1 12.1034,4.3956" />
    <path
       style="opacity:1;fill:#ececec;fill-opacity:1;fill-rule:nonzero;stroke:none;stroke-width:5.69999981;stroke-linecap:butt;stroke-linejoin:round;stroke-miterlimit:4;stroke-dasharray:none;stroke-dashoffset:0;stroke-opacity:0.97979796;paint-order:markers stroke fill"
       id="path1391"
       sodipodi:type="arc"
       sodipodi:cx="144.86423"
       sodipodi:cy="143.07768"
       sodipodi:rx="14.393606"
       sodipodi:ry="4.4149671"
       sodipodi:start="0"
       sodipodi:end="6.2797121"
       sodipodi:open="true"
       d="m 159.25783,143.07768 a 14.393606,4.4149671 0 0 1 -14.3811,4.41497 14.393606,4.4149671 0 0 1 -14.40609,-4.4073 14.393606,4.4149671 0 0 1 14.35609,-4.42262 14.393606,4.4149671 0 0 1 14.43102,4.39962" />
    <path
       style="opacity:1;fill:#ececec;fill-opacity:1;fill-rule:nonzero;stroke:none;stroke-width:5.69999981;stroke-linecap:butt;stroke-linejoin:round;stroke-miterlimit:4;stroke-dasharray:none;stroke-dashoffset:0;stroke-opacity:0.97979796;paint-order:markers stroke fill"
       id="path1393"
       sodipodi:type="arc"
       sodipodi:cx="126.98838"
       sodipodi:cy="139.36725"
       sodipodi:rx="18.340189"
       sodipodi:ry="7.6610909"
       sodipodi:start="0"
       sodipodi:end="6.2797121"
       sodipodi:open="true"
       d="m 145.32857,139.36725 a 18.340189,7.6610909 0 0 1 -18.32426,7.66109 18.340189,7.6610909 0 0 1 -18.35609,-7.64779 18.340189,7.6610909 0 0 1 18.29239,-7.67437 18.340189,7.6610909 0 0 1 18.38785,7.63446" />
    <path
       style="opacity:1;fill:#ececec;fill-opacity:1;fill-rule:nonzero;stroke:none;stroke-width:5.69999981;stroke-linecap:butt;stroke-linejoin:round;stroke-miterlimit:4;stroke-dasharray:none;stroke-dashoffset:0;stroke-opacity:0.97979796;paint-order:markers stroke fill"
       id="path1395"
       sodipodi:type="arc"
       sodipodi:cx="30.644363"
       sodipodi:cy="134.72417"
       sodipodi:rx="13.929257"
       sodipodi:ry="3.4823143"
       sodipodi:start="0"
       sodipodi:end="6.2797121"
       sodipodi:open="true"
       d="m 44.573621,134.72417 a 13.929257,3.4823143 0 0 1 -13.917163,3.48231 13.929257,3.4823143 0 0 1 -13.941331,-3.47627 13.929257,3.4823143 0 0 1 13.892952,-3.48835 13.929257,3.4823143 0 0 1 13.965458,3.47021" />
    <path
       style="opacity:1;fill:#ececec;fill-opacity:1;fill-rule:nonzero;stroke:none;stroke-width:5.69999981;stroke-linecap:butt;stroke-linejoin:round;stroke-miterlimit:4;stroke-dasharray:none;stroke-dashoffset:0;stroke-opacity:0.97979796;paint-order:markers stroke fill"
       id="path1397"
       sodipodi:type="arc"
       sodipodi:cx="15.78649"
       sodipodi:cy="134.25986"
       sodipodi:rx="11.143406"
       sodipodi:ry="4.4109311"
       sodipodi:start="0"
       sodipodi:end="6.2797121"
       sodipodi:open="true"
       d="m 26.929896,134.25986 a 11.143406,4.4109311 0 0 1 -11.13373,4.41093 11.143406,4.4109311 0 0 1 -11.1530647,-4.40327 11.143406,4.4109311 0 0 1 11.1143617,-4.41858 11.143406,4.4109311 0 0 1 11.172366,4.3956" />
    <path
       style="opacity:1;fill:#ececec;fill-opacity:1;fill-rule:nonzero;stroke:none;stroke-width:5.69999981;stroke-linecap:butt;stroke-linejoin:round;stroke-miterlimit:4;stroke-dasharray:none;stroke-dashoffset:0;stroke-opacity:0.97979796;paint-order:markers stroke fill"
       id="path1399"
       sodipodi:type="arc"
       sodipodi:cx="50.841789"
       sodipodi:cy="134.95631"
       sodipodi:rx="14.62572"
       sodipodi:ry="5.571703"
       sodipodi:start="0"
       sodipodi:end="6.2797121"
       sodipodi:open="true"
       d="m 65.467509,134.95631 a 14.62572,5.571703 0 0 1 -14.61302,5.5717 14.62572,5.571703 0 0 1 -14.638398,-5.56202 14.62572,5.571703 0 0 1 14.5876,-5.58136 14.62572,5.571703 0 0 1 14.66373,5.55233" />
  </g>
</svg>
